
		<svg xmlns="http://www.w3.org/2000/svg" xmlns:xlink="http://www.w3.org/1999/xlink" version="1.1" width="3136.3636363636365" height="1036.3636363636365">
			
			<g transform="scale(6.818181818181818) translate(10, 10)">
				<defs id="SvgjsDefs8350"><linearGradient id="SvgjsLinearGradient8354"><stop id="SvgjsStop8355" stop-color="#b88746" offset="0"></stop><stop id="SvgjsStop8356" stop-color="#fdf5a6" offset="1"></stop></linearGradient><linearGradient id="SvgjsLinearGradient8357"><stop id="SvgjsStop8358" stop-color="#b88746" offset="0"></stop><stop id="SvgjsStop8359" stop-color="#fdf5a6" offset="1"></stop></linearGradient></defs><g id="SvgjsG8351" featureKey="root" fill="#000000"></g><g id="SvgjsG8352" featureKey="symbol1" fill="url(#SvgjsLinearGradient8357)" transform="matrix(0.7021062867202856,0,0,0.7021062867202856,184.92978937028175,-2.3570682357863877)"><g xmlns="http://www.w3.org/2000/svg"><path d="M30,51.4c0,0-9.3,5.6-15.7,4.9C7.8,55.7,1.8,52.9,0.1,50c0,0,5.8-6.3,14.1-6.3c8.2-0.1,13.9,4.2,15.9,4.9   C30.1,48.6,28.9,49.5,30,51.4z"></path><g><path d="M64.1,47.1c0,0-7.3-8-8-14.4c-0.7-6.4,0.8-12.8,3.4-15.1c0,0,7.3,4.4,9,12.5c1.7,8.1-1.2,14.5-1.6,16.6    C66.9,46.6,65.7,45.7,64.1,47.1z"></path><path d="M67.5,46.8c0,0,2.1-10.7,6.8-15c4.7-4.4,10.8-7,14.1-6.3c0,0,0.9,8.5-4.6,14.7c-5.4,6.2-12.3,7.6-14.2,8.6    C69.6,48.7,69.7,47.3,67.5,46.8z"></path><path d="M70.1,49.6c0,0,9.6-5.1,15.9-4.2c6.4,0.9,12.2,4,13.8,7c0,0-6,6-14.3,5.7c-8.2-0.3-13.7-4.8-15.6-5.6    C69.9,52.4,71.1,51.5,70.1,49.6z"></path><path d="M69.5,53.1c0,0,9.9,4.5,13.1,10c3.2,5.6,4.3,12.1,2.9,15.2c0,0-8.4-1.1-13.2-7.9c-4.8-6.7-4.6-13.8-5.1-15.8    C67.1,54.6,68.5,55,69.5,53.1z"></path><path d="M66.4,54.7c0,0,2.2,10.7-0.5,16.5c-2.7,5.8-7.3,10.6-10.7,11.2c0,0-4-7.5-1.3-15.4c2.7-7.8,8.5-11.8,9.9-13.4    C63.8,53.7,64.3,55.1,66.4,54.7z"></path><path d="M63.5,53.1c0,0-7.3,8-13.6,9.3c-6.3,1.3-12.8,0.4-15.4-2c0,0,3.7-7.7,11.6-10.1c7.9-2.5,14.5-0.1,16.6,0.1    C62.8,50.4,61.9,51.6,63.5,53.1z"></path><path d="M47.5,45.2c0,0-10.9,0-16-3.8c-5.2-3.8-8.9-9.3-8.8-12.7c0,0,8.2-2.4,15.3,1.8C45,34.7,47.7,41.2,49,42.9    C49,42.9,47.5,43.1,47.5,45.2z"></path></g></g></g><g id="SvgjsG8353" featureKey="text1" fill="url(#SvgjsLinearGradient8354)" transform="matrix(2.7129983237181876,0,0,2.7129983237181876,-2.9300379826302967,67.03995140746362)"><path d="M14.44 13.5 q0 1.38 -0.52 2.6 t-1.43 2.13 t-2.13 1.43 t-2.6 0.52 t-2.6 -0.52 t-2.12 -1.43 t-1.43 -2.13 t-0.53 -2.6 t0.53 -2.6 t1.43 -2.13 t2.12 -1.44 t2.6 -0.53 t2.6 0.53 t2.13 1.44 t1.43 2.13 t0.52 2.6 z M12.32 13.48 q0 -1.08 -0.36 -1.97 t-0.98 -1.54 t-1.46 -1.01 t-1.78 -0.36 t-1.77 0.36 t-1.45 1.01 t-0.98 1.54 t-0.36 1.97 q0 1.12 0.41 2.02 t1.07 1.54 t1.5 0.99 t1.7 0.35 q0.84 0 1.65 -0.35 t1.43 -0.99 t1 -1.54 t0.38 -2.02 z M17.62 7.02 l1.8 -0.02 q1.12 -0.02 2.05 0.4 t1.61 1.14 t1.05 1.69 t0.37 2.07 q0 1.08 -0.39 2.04 t-1.05 1.68 t-1.55 1.14 t-1.89 0.42 l0 2.42 l-2 0 l0 -12.98 z M19.62 15.8 q0.64 0 1.16 -0.26 t0.88 -0.73 t0.57 -1.1 t0.21 -1.39 q0 -0.72 -0.19 -1.37 t-0.55 -1.13 t-0.89 -0.77 t-1.19 -0.29 l0 7.04 z M30.439999999999998 8.7 l0 11.3 l-1.98 0 l0 -11.3 l-2.16 0 l0 -1.72 l6.3 0 l0 1.72 l-2.16 0 z M35.6 7 l2.02 0 l0 13 l-2.02 0 l0 -13 z M46.5 14.059999999999999 l4.7 -7.44 l0 13.36 l-1.84 0 l0 -7.3 l-2.88 4.48 l-2.86 -4.56 l0 7.38 l-1.82 0 l0 -13.36 z M57.34 6.98 l0 9.7 q0 0.54 0.25 0.91 t0.63 0.55 t0.82 0.18 t0.81 -0.19 t0.63 -0.55 t0.26 -0.9 l0 -9.7 l1.96 0 l0 9.66 q0 1.18 -0.55 1.96 t-1.38 1.18 t-1.8 0.4 t-1.79 -0.39 t-1.37 -1.17 t-0.53 -1.96 l0 -9.68 l2.06 0 z M71.56 14.059999999999999 l4.7 -7.44 l0 13.36 l-1.84 0 l0 -7.3 l-2.88 4.48 l-2.86 -4.56 l0 7.38 l-1.82 0 l0 -13.36 z  M90.42 7 l5.66 0 l0.02 1.72 l-3.66 0 l0 5.3 l4.2 0 l0 1.76 l-4.18 0 l0 4.26 l-2.04 0 l0 -13.04 z M102 6.98 l0 9.7 q0 0.54 0.25 0.91 t0.63 0.55 t0.82 0.18 t0.81 -0.19 t0.63 -0.55 t0.26 -0.9 l0 -9.7 l1.96 0 l0 9.66 q0 1.18 -0.55 1.96 t-1.38 1.18 t-1.8 0.4 t-1.79 -0.39 t-1.37 -1.17 t-0.53 -1.96 l0 -9.68 l2.06 0 z M114.48 8.7 l0 11.3 l-1.98 0 l0 -11.3 l-2.16 0 l0 -1.72 l6.3 0 l0 1.72 l-2.16 0 z M121.6 6.98 l0 9.7 q0 0.54 0.25 0.91 t0.63 0.55 t0.82 0.18 t0.81 -0.19 t0.63 -0.55 t0.26 -0.9 l0 -9.7 l1.96 0 l0 9.66 q0 1.18 -0.55 1.96 t-1.38 1.18 t-1.8 0.4 t-1.79 -0.39 t-1.37 -1.17 t-0.53 -1.96 l0 -9.68 l2.06 0 z M135.78 20 l-1.46 -2.72 q-0.16 0.08 -0.36 0.12 t-0.38 0.08 q-0.22 0.04 -0.42 0.06 l0 2.46 l-1.98 0 l0 -13.02 l1.96 0 q0.66 0 1.5 0.23 t1.6 0.81 t1.28 1.56 t0.52 2.48 q0 1.24 -0.33 2.08 t-0.73 1.36 q-0.48 0.62 -1.06 1 l2.28 3.5 l-2.42 0 z M136 12.280000000000001 q0 -0.72 -0.19 -1.37 t-0.56 -1.14 t-0.89 -0.77 t-1.18 -0.28 l0 7.02 q0.64 0 1.16 -0.26 t0.88 -0.72 t0.57 -1.09 t0.21 -1.39 z M141.78 7 l2.02 0 l0 13 l-2.02 0 l0 -13 z M151.4 11.82 q0.68 0.28 1.26 0.65 t0.99 0.88 t0.63 1.16 t0.22 1.51 q0 0.82 -0.34 1.58 t-0.91 1.33 t-1.33 0.91 t-1.6 0.34 q-0.46 0 -0.92 -0.07 t-0.86 -0.19 t-0.73 -0.26 t-0.51 -0.26 l0 -2.48 q0.14 0.22 0.44 0.45 t0.69 0.44 t0.83 0.34 t0.86 0.13 q0.96 0 1.54 -0.57 t0.72 -1.43 q0.14 -0.98 -0.45 -1.59 t-1.61 -1.07 q-0.52 -0.24 -1.01 -0.54 t-0.86 -0.73 t-0.6 -0.99 t-0.23 -1.3 q0 -0.84 0.32 -1.46 t0.81 -1.01 t1.07 -0.59 t1.08 -0.2 q0.46 0 0.87 0.05 t0.73 0.11 q0.36 0.08 0.7 0.18 l0 2.4 q-0.22 -0.26 -0.52 -0.48 q-0.26 -0.18 -0.66 -0.33 t-0.92 -0.15 q-0.4 0 -0.68 0.14 t-0.46 0.35 t-0.26 0.46 t-0.08 0.47 q0 0.46 0.27 0.81 t0.61 0.57 q0.38 0.26 0.9 0.44 z M160.94 8.7 l0 11.3 l-1.98 0 l0 -11.3 l-2.16 0 l0 -1.72 l6.3 0 l0 1.72 l-2.16 0 z"></path></g>
			</g>
		</svg>
	